<svg id="visual" viewBox="0 0 900 900" width="900" height="900" xmlns="http://www.w3.org/2000/svg" xmlns:xlink="http://www.w3.org/1999/xlink" version="1.1"><g stroke-width="1" stroke-linejoin="bevel"><path d="M434 464L390 548L481 527Z" fill="#111725" stroke="#0e131d"></path><path d="M557 620L528 543L481 527Z" fill="#111826" stroke="#0e131d"></path><path d="M508 374L459 386L434 464Z" fill="#101624" stroke="#0e131d"></path><path d="M434 464L335 480L390 548Z" fill="#101623" stroke="#0e131d"></path><path d="M236 513L366 630L390 548Z" fill="#111827" stroke="#0e131d"></path><path d="M390 548L417 650L481 527Z" fill="#101725" stroke="#0e131d"></path><path d="M508 374L434 464L571 422Z" fill="#101725" stroke="#0e131d"></path><path d="M434 464L339 353L335 480Z" fill="#0f1421" stroke="#0e131d"></path><path d="M366 630L417 650L390 548Z" fill="#111827" stroke="#0e131d"></path><path d="M339 353L299 461L335 480Z" fill="#101623" stroke="#0e131d"></path><path d="M335 480L236 513L390 548Z" fill="#111826" stroke="#0e131d"></path><path d="M571 422L434 464L481 527Z" fill="#101725" stroke="#0e131d"></path><path d="M417 650L557 620L481 527Z" fill="#101522" stroke="#0e131d"></path><path d="M528 543L571 422L481 527Z" fill="#111725" stroke="#0e131d"></path><path d="M634 547L571 422L528 543Z" fill="#101623" stroke="#0e131d"></path><path d="M382 735L480 692L417 650Z" fill="#101624" stroke="#0e131d"></path><path d="M417 650L480 692L557 620Z" fill="#101624" stroke="#0e131d"></path><path d="M361 294L339 353L459 386Z" fill="#101522" stroke="#0e131d"></path><path d="M459 386L339 353L434 464Z" fill="#101522" stroke="#0e131d"></path><path d="M187 420L236 513L299 461Z" fill="#101624" stroke="#0e131d"></path><path d="M299 461L236 513L335 480Z" fill="#0e131f" stroke="#0e131d"></path><path d="M339 353L278 385L299 461Z" fill="#101623" stroke="#0e131d"></path><path d="M557 620L634 547L528 543Z" fill="#0f1521" stroke="#0e131d"></path><path d="M236 513L259 643L366 630Z" fill="#0f1521" stroke="#0e131d"></path><path d="M366 630L382 735L417 650Z" fill="#0e131f" stroke="#0e131d"></path><path d="M259 643L382 735L366 630Z" fill="#111827" stroke="#0e131d"></path><path d="M420 828L545 716L480 692Z" fill="#101725" stroke="#0e131d"></path><path d="M480 692L545 716L557 620Z" fill="#0e1420" stroke="#0e131d"></path><path d="M557 620L662 651L634 547Z" fill="#101522" stroke="#0e131d"></path><path d="M429 271L361 294L459 386Z" fill="#111725" stroke="#0e131d"></path><path d="M339 353L243 254L278 385Z" fill="#0f1421" stroke="#0e131d"></path><path d="M634 547L657 436L571 422Z" fill="#0f1521" stroke="#0e131d"></path><path d="M571 422L635 381L508 374Z" fill="#101623" stroke="#0e131d"></path><path d="M508 374L429 271L459 386Z" fill="#101624" stroke="#0e131d"></path><path d="M158 558L202 598L236 513Z" fill="#0e131f" stroke="#0e131d"></path><path d="M236 513L202 598L259 643Z" fill="#111827" stroke="#0e131d"></path><path d="M571 285L429 271L508 374Z" fill="#0f1421" stroke="#0e131d"></path><path d="M657 436L635 381L571 422Z" fill="#111827" stroke="#0e131d"></path><path d="M202 598L237 689L259 643Z" fill="#111725" stroke="#0e131d"></path><path d="M259 643L237 689L382 735Z" fill="#101624" stroke="#0e131d"></path><path d="M178 374L187 420L278 385Z" fill="#101522" stroke="#0e131d"></path><path d="M278 385L187 420L299 461Z" fill="#111826" stroke="#0e131d"></path><path d="M637 728L662 651L557 620Z" fill="#101725" stroke="#0e131d"></path><path d="M634 547L712 466L657 436Z" fill="#111725" stroke="#0e131d"></path><path d="M635 381L571 285L508 374Z" fill="#111725" stroke="#0e131d"></path><path d="M187 420L158 558L236 513Z" fill="#101624" stroke="#0e131d"></path><path d="M121 701L195 752L237 689Z" fill="#0e1420" stroke="#0e131d"></path><path d="M746 572L712 466L634 547Z" fill="#111827" stroke="#0e131d"></path><path d="M657 436L713 355L635 381Z" fill="#101522" stroke="#0e131d"></path><path d="M635 381L644 292L571 285Z" fill="#0f1521" stroke="#0e131d"></path><path d="M724 695L686 644L662 651Z" fill="#111725" stroke="#0e131d"></path><path d="M662 651L686 644L634 547Z" fill="#101522" stroke="#0e131d"></path><path d="M243 254L178 374L278 385Z" fill="#111725" stroke="#0e131d"></path><path d="M106 426L122 562L158 558Z" fill="#0f1421" stroke="#0e131d"></path><path d="M545 716L637 728L557 620Z" fill="#0e131f" stroke="#0e131d"></path><path d="M559 829L637 728L545 716Z" fill="#101725" stroke="#0e131d"></path><path d="M260 812L389 817L382 735Z" fill="#101725" stroke="#0e131d"></path><path d="M382 735L420 828L480 692Z" fill="#0f1521" stroke="#0e131d"></path><path d="M713 355L644 292L635 381Z" fill="#0f1521" stroke="#0e131d"></path><path d="M550 172L434 192L429 271Z" fill="#111725" stroke="#0e131d"></path><path d="M106 426L158 558L187 420Z" fill="#101624" stroke="#0e131d"></path><path d="M158 558L99 631L202 598Z" fill="#111827" stroke="#0e131d"></path><path d="M389 817L420 828L382 735Z" fill="#101623" stroke="#0e131d"></path><path d="M686 644L746 572L634 547Z" fill="#101623" stroke="#0e131d"></path><path d="M724 695L746 572L686 644Z" fill="#0e131f" stroke="#0e131d"></path><path d="M348 171L243 254L361 294Z" fill="#101624" stroke="#0e131d"></path><path d="M361 294L243 254L339 353Z" fill="#101522" stroke="#0e131d"></path><path d="M550 172L429 271L571 285Z" fill="#111725" stroke="#0e131d"></path><path d="M429 271L348 171L361 294Z" fill="#111827" stroke="#0e131d"></path><path d="M712 466L713 355L657 436Z" fill="#101522" stroke="#0e131d"></path><path d="M780 374L713 355L712 466Z" fill="#101725" stroke="#0e131d"></path><path d="M121 701L237 689L202 598Z" fill="#111826" stroke="#0e131d"></path><path d="M237 689L260 812L382 735Z" fill="#0e1420" stroke="#0e131d"></path><path d="M335 900L480 900L420 828Z" fill="#0f1421" stroke="#0e131d"></path><path d="M122 349L106 426L178 374Z" fill="#0f1521" stroke="#0e131d"></path><path d="M178 374L106 426L187 420Z" fill="#111725" stroke="#0e131d"></path><path d="M420 828L559 829L545 716Z" fill="#0e131f" stroke="#0e131d"></path><path d="M195 752L260 812L237 689Z" fill="#101725" stroke="#0e131d"></path><path d="M559 829L653 776L637 728Z" fill="#111826" stroke="#0e131d"></path><path d="M637 728L724 695L662 651Z" fill="#0e131f" stroke="#0e131d"></path><path d="M653 776L724 695L637 728Z" fill="#101522" stroke="#0e131d"></path><path d="M122 293L122 349L178 374Z" fill="#111827" stroke="#0e131d"></path><path d="M0 617L99 631L122 562Z" fill="#0e1420" stroke="#0e131d"></path><path d="M122 562L99 631L158 558Z" fill="#111827" stroke="#0e131d"></path><path d="M434 192L348 171L429 271Z" fill="#111725" stroke="#0e131d"></path><path d="M243 254L168 242L178 374Z" fill="#0f1421" stroke="#0e131d"></path><path d="M808 608L786 527L746 572Z" fill="#0f1521" stroke="#0e131d"></path><path d="M746 572L786 527L712 466Z" fill="#101522" stroke="#0e131d"></path><path d="M99 631L121 701L202 598Z" fill="#0e1420" stroke="#0e131d"></path><path d="M195 752L170 776L260 812Z" fill="#0f1421" stroke="#0e131d"></path><path d="M639 162L571 285L644 292Z" fill="#101623" stroke="#0e131d"></path><path d="M639 162L550 172L571 285Z" fill="#111827" stroke="#0e131d"></path><path d="M434 192L373 107L348 171Z" fill="#101522" stroke="#0e131d"></path><path d="M823 298L699 270L713 355Z" fill="#111826" stroke="#0e131d"></path><path d="M713 355L699 270L644 292Z" fill="#101624" stroke="#0e131d"></path><path d="M121 701L170 776L195 752Z" fill="#0f1421" stroke="#0e131d"></path><path d="M348 171L266 180L243 254Z" fill="#101623" stroke="#0e131d"></path><path d="M823 456L780 374L712 466Z" fill="#111827" stroke="#0e131d"></path><path d="M209 198L168 242L243 254Z" fill="#101624" stroke="#0e131d"></path><path d="M168 242L122 293L178 374Z" fill="#0e131f" stroke="#0e131d"></path><path d="M0 477L0 518L106 426Z" fill="#101725" stroke="#0e131d"></path><path d="M266 180L209 198L243 254Z" fill="#0f1521" stroke="#0e131d"></path><path d="M420 828L480 900L559 829Z" fill="#101624" stroke="#0e131d"></path><path d="M660 900L722 840L653 776Z" fill="#0f1521" stroke="#0e131d"></path><path d="M335 900L420 828L389 817Z" fill="#0f1521" stroke="#0e131d"></path><path d="M796 725L808 608L724 695Z" fill="#111826" stroke="#0e131d"></path><path d="M724 695L808 608L746 572Z" fill="#0e1420" stroke="#0e131d"></path><path d="M786 527L823 456L712 466Z" fill="#0e131f" stroke="#0e131d"></path><path d="M250 900L335 900L260 812Z" fill="#0f1521" stroke="#0e131d"></path><path d="M260 812L335 900L389 817Z" fill="#101522" stroke="#0e131d"></path><path d="M900 520L823 456L786 527Z" fill="#0f1421" stroke="#0e131d"></path><path d="M480 900L558 900L559 829Z" fill="#101624" stroke="#0e131d"></path><path d="M776 809L796 725L724 695Z" fill="#101623" stroke="#0e131d"></path><path d="M699 270L639 162L644 292Z" fill="#101725" stroke="#0e131d"></path><path d="M424 87L373 107L434 192Z" fill="#111826" stroke="#0e131d"></path><path d="M719 167L639 162L699 270Z" fill="#0e1420" stroke="#0e131d"></path><path d="M424 87L434 192L550 172Z" fill="#101522" stroke="#0e131d"></path><path d="M348 171L297 58L266 180Z" fill="#111725" stroke="#0e131d"></path><path d="M266 180L178 69L209 198Z" fill="#111827" stroke="#0e131d"></path><path d="M776 809L724 695L653 776Z" fill="#101725" stroke="#0e131d"></path><path d="M167 900L260 812L170 776Z" fill="#101522" stroke="#0e131d"></path><path d="M167 900L250 900L260 812Z" fill="#0f1421" stroke="#0e131d"></path><path d="M573 103L424 87L550 172Z" fill="#101624" stroke="#0e131d"></path><path d="M0 708L101 791L121 701Z" fill="#0f1521" stroke="#0e131d"></path><path d="M121 701L101 791L170 776Z" fill="#101522" stroke="#0e131d"></path><path d="M106 426L0 518L122 562Z" fill="#0f1421" stroke="#0e131d"></path><path d="M99 631L0 708L121 701Z" fill="#111725" stroke="#0e131d"></path><path d="M0 477L106 426L0 349Z" fill="#111826" stroke="#0e131d"></path><path d="M0 349L106 426L122 349Z" fill="#0e131f" stroke="#0e131d"></path><path d="M660 900L653 776L559 829Z" fill="#101623" stroke="#0e131d"></path><path d="M639 162L573 103L550 172Z" fill="#111826" stroke="#0e131d"></path><path d="M0 518L0 617L122 562Z" fill="#111827" stroke="#0e131d"></path><path d="M558 900L660 900L559 829Z" fill="#111826" stroke="#0e131d"></path><path d="M900 392L823 298L780 374Z" fill="#111827" stroke="#0e131d"></path><path d="M780 374L823 298L713 355Z" fill="#101725" stroke="#0e131d"></path><path d="M639 162L616 99L573 103Z" fill="#0e131f" stroke="#0e131d"></path><path d="M805 191L719 167L699 270Z" fill="#111827" stroke="#0e131d"></path><path d="M810 900L776 809L722 840Z" fill="#0f1421" stroke="#0e131d"></path><path d="M722 840L776 809L653 776Z" fill="#101623" stroke="#0e131d"></path><path d="M720 84L616 99L639 162Z" fill="#111826" stroke="#0e131d"></path><path d="M537 0L438 0L424 87Z" fill="#101522" stroke="#0e131d"></path><path d="M122 293L0 349L122 349Z" fill="#101522" stroke="#0e131d"></path><path d="M0 240L0 349L122 293Z" fill="#111826" stroke="#0e131d"></path><path d="M120 152L122 293L168 242Z" fill="#101624" stroke="#0e131d"></path><path d="M101 791L167 900L170 776Z" fill="#101522" stroke="#0e131d"></path><path d="M808 608L900 520L786 527Z" fill="#111826" stroke="#0e131d"></path><path d="M823 456L900 392L780 374Z" fill="#111827" stroke="#0e131d"></path><path d="M900 651L900 520L808 608Z" fill="#0f1421" stroke="#0e131d"></path><path d="M900 651L808 608L796 725Z" fill="#111827" stroke="#0e131d"></path><path d="M0 617L0 708L99 631Z" fill="#101725" stroke="#0e131d"></path><path d="M101 791L59 900L167 900Z" fill="#101623" stroke="#0e131d"></path><path d="M660 900L710 900L722 840Z" fill="#0e1420" stroke="#0e131d"></path><path d="M343 0L373 107L424 87Z" fill="#0f1421" stroke="#0e131d"></path><path d="M343 0L297 58L373 107Z" fill="#0e131f" stroke="#0e131d"></path><path d="M373 107L297 58L348 171Z" fill="#0f1521" stroke="#0e131d"></path><path d="M209 198L120 152L168 242Z" fill="#0f1421" stroke="#0e131d"></path><path d="M178 69L120 152L209 198Z" fill="#101725" stroke="#0e131d"></path><path d="M900 520L900 416L823 456Z" fill="#0f1521" stroke="#0e131d"></path><path d="M900 416L900 392L823 456Z" fill="#111827" stroke="#0e131d"></path><path d="M823 298L805 191L699 270Z" fill="#101624" stroke="#0e131d"></path><path d="M900 731L796 725L776 809Z" fill="#101725" stroke="#0e131d"></path><path d="M900 731L900 651L796 725Z" fill="#0e131f" stroke="#0e131d"></path><path d="M900 257L805 191L823 298Z" fill="#0e131f" stroke="#0e131d"></path><path d="M719 167L720 84L639 162Z" fill="#0e131f" stroke="#0e131d"></path><path d="M0 211L0 240L122 293Z" fill="#101522" stroke="#0e131d"></path><path d="M297 58L178 69L266 180Z" fill="#101725" stroke="#0e131d"></path><path d="M120 152L0 211L122 293Z" fill="#0e1420" stroke="#0e131d"></path><path d="M537 0L424 87L573 103Z" fill="#0f1421" stroke="#0e131d"></path><path d="M297 58L289 0L178 69Z" fill="#101623" stroke="#0e131d"></path><path d="M537 0L573 103L616 99Z" fill="#101624" stroke="#0e131d"></path><path d="M900 839L900 731L776 809Z" fill="#0e1420" stroke="#0e131d"></path><path d="M805 191L720 84L719 167Z" fill="#101623" stroke="#0e131d"></path><path d="M438 0L343 0L424 87Z" fill="#0f1421" stroke="#0e131d"></path><path d="M661 0L537 0L616 99Z" fill="#0f1421" stroke="#0e131d"></path><path d="M0 117L0 211L120 152Z" fill="#101623" stroke="#0e131d"></path><path d="M0 834L59 900L101 791Z" fill="#0e131f" stroke="#0e131d"></path><path d="M343 0L289 0L297 58Z" fill="#111827" stroke="#0e131d"></path><path d="M0 708L0 834L101 791Z" fill="#0f1521" stroke="#0e131d"></path><path d="M900 392L900 257L823 298Z" fill="#101725" stroke="#0e131d"></path><path d="M805 191L838 56L720 84Z" fill="#101725" stroke="#0e131d"></path><path d="M710 900L810 900L722 840Z" fill="#101624" stroke="#0e131d"></path><path d="M119 0L79 93L178 69Z" fill="#111826" stroke="#0e131d"></path><path d="M178 69L79 93L120 152Z" fill="#111725" stroke="#0e131d"></path><path d="M701 0L661 0L720 84Z" fill="#0e1420" stroke="#0e131d"></path><path d="M720 84L661 0L616 99Z" fill="#111826" stroke="#0e131d"></path><path d="M810 900L900 839L776 809Z" fill="#111725" stroke="#0e131d"></path><path d="M289 0L179 0L178 69Z" fill="#111826" stroke="#0e131d"></path><path d="M0 834L0 900L59 900Z" fill="#101725" stroke="#0e131d"></path><path d="M900 257L900 175L805 191Z" fill="#101623" stroke="#0e131d"></path><path d="M837 0L701 0L720 84Z" fill="#111827" stroke="#0e131d"></path><path d="M0 0L0 117L79 93Z" fill="#0e131f" stroke="#0e131d"></path><path d="M79 93L0 117L120 152Z" fill="#0e1420" stroke="#0e131d"></path><path d="M179 0L119 0L178 69Z" fill="#101522" stroke="#0e131d"></path><path d="M810 900L900 900L900 839Z" fill="#111725" stroke="#0e131d"></path><path d="M900 175L900 120L805 191Z" fill="#101522" stroke="#0e131d"></path><path d="M900 120L838 56L805 191Z" fill="#0f1421" stroke="#0e131d"></path><path d="M838 56L837 0L720 84Z" fill="#111826" stroke="#0e131d"></path><path d="M900 0L837 0L838 56Z" fill="#0f1421" stroke="#0e131d"></path><path d="M119 0L0 0L79 93Z" fill="#101624" stroke="#0e131d"></path><path d="M900 120L900 0L838 56Z" fill="#0f1521" stroke="#0e131d"></path></g></svg>