<svg id="visual" viewBox="0 0 900 600" width="900" height="600" xmlns="http://www.w3.org/2000/svg" xmlns:xlink="http://www.w3.org/1999/xlink" version="1.1"><g stroke-width="1" stroke-linejoin="bevel"><path d="M410 306L373 176L326 289Z" fill="#04121e" stroke="#04121e"></path><path d="M373 176L316 198L326 289Z" fill="#02111d" stroke="#02111d"></path><path d="M316 198L238 274L326 289Z" fill="#00101c" stroke="#00101c"></path><path d="M327 426L430 392L410 306Z" fill="#101726" stroke="#101726"></path><path d="M410 306L523 217L373 176Z" fill="#091422" stroke="#091422"></path><path d="M327 426L410 306L326 289Z" fill="#0d1624" stroke="#0d1624"></path><path d="M410 306L530 293L523 217Z" fill="#091422" stroke="#091422"></path><path d="M430 392L530 293L410 306Z" fill="#0e1625" stroke="#0e1625"></path><path d="M392 74L300 103L373 176Z" fill="#04121e" stroke="#04121e"></path><path d="M373 176L300 103L316 198Z" fill="#111827" stroke="#111827"></path><path d="M316 198L185 192L238 274Z" fill="#0e1625" stroke="#0e1625"></path><path d="M523 217L481 115L373 176Z" fill="#101726" stroke="#101726"></path><path d="M481 115L392 74L373 176Z" fill="#0e1625" stroke="#0e1625"></path><path d="M238 274L327 426L326 289Z" fill="#051320" stroke="#051320"></path><path d="M430 392L476 413L530 293Z" fill="#051320" stroke="#051320"></path><path d="M389 474L476 413L430 392Z" fill="#101726" stroke="#101726"></path><path d="M530 293L571 192L523 217Z" fill="#0b1523" stroke="#0b1523"></path><path d="M523 217L571 192L481 115Z" fill="#071321" stroke="#071321"></path><path d="M198 111L185 192L316 198Z" fill="#0d1624" stroke="#0d1624"></path><path d="M238 274L215 434L327 426Z" fill="#0b1523" stroke="#0b1523"></path><path d="M300 103L198 111L316 198Z" fill="#091422" stroke="#091422"></path><path d="M293 0L198 111L300 103Z" fill="#111827" stroke="#111827"></path><path d="M327 426L389 474L430 392Z" fill="#0e1625" stroke="#0e1625"></path><path d="M471 0L382 0L392 74Z" fill="#0e1625" stroke="#0e1625"></path><path d="M392 74L293 0L300 103Z" fill="#051320" stroke="#051320"></path><path d="M471 0L392 74L481 115Z" fill="#0d1624" stroke="#0d1624"></path><path d="M133 409L215 434L238 274Z" fill="#111827" stroke="#111827"></path><path d="M327 426L323 517L389 474Z" fill="#0d1624" stroke="#0d1624"></path><path d="M530 293L631 278L571 192Z" fill="#0e1625" stroke="#0e1625"></path><path d="M630 403L631 278L530 293Z" fill="#02111d" stroke="#02111d"></path><path d="M382 0L293 0L392 74Z" fill="#00101c" stroke="#00101c"></path><path d="M577 0L471 0L481 115Z" fill="#091422" stroke="#091422"></path><path d="M638 84L481 115L571 192Z" fill="#091422" stroke="#091422"></path><path d="M215 434L323 517L327 426Z" fill="#051320" stroke="#051320"></path><path d="M122 85L96 192L185 192Z" fill="#0e1625" stroke="#0e1625"></path><path d="M185 192L66 261L238 274Z" fill="#0d1624" stroke="#0d1624"></path><path d="M122 85L185 192L198 111Z" fill="#02111d" stroke="#02111d"></path><path d="M66 261L133 409L238 274Z" fill="#051320" stroke="#051320"></path><path d="M215 434L200 481L323 517Z" fill="#101726" stroke="#101726"></path><path d="M133 409L200 481L215 434Z" fill="#111827" stroke="#111827"></path><path d="M607 471L630 403L476 413Z" fill="#02111d" stroke="#02111d"></path><path d="M476 413L630 403L530 293Z" fill="#04121e" stroke="#04121e"></path><path d="M464 535L476 413L389 474Z" fill="#02111d" stroke="#02111d"></path><path d="M175 0L122 85L198 111Z" fill="#0d1624" stroke="#0d1624"></path><path d="M630 403L670 326L631 278Z" fill="#0b1523" stroke="#0b1523"></path><path d="M696 175L638 84L571 192Z" fill="#091422" stroke="#091422"></path><path d="M413 600L464 535L389 474Z" fill="#0b1523" stroke="#0b1523"></path><path d="M696 175L571 192L631 278Z" fill="#0d1624" stroke="#0d1624"></path><path d="M96 192L66 261L185 192Z" fill="#091422" stroke="#091422"></path><path d="M0 270L66 261L0 183Z" fill="#051320" stroke="#051320"></path><path d="M638 84L577 0L481 115Z" fill="#101726" stroke="#101726"></path><path d="M293 0L175 0L198 111Z" fill="#0d1624" stroke="#0d1624"></path><path d="M464 535L607 471L476 413Z" fill="#0d1624" stroke="#0d1624"></path><path d="M630 403L696 390L670 326Z" fill="#071321" stroke="#071321"></path><path d="M670 326L696 175L631 278Z" fill="#051320" stroke="#051320"></path><path d="M175 0L132 0L122 85Z" fill="#091422" stroke="#091422"></path><path d="M0 183L66 261L96 192Z" fill="#091422" stroke="#091422"></path><path d="M695 461L696 390L630 403Z" fill="#091422" stroke="#091422"></path><path d="M670 326L799 305L696 175Z" fill="#0e1625" stroke="#0e1625"></path><path d="M200 481L304 600L323 517Z" fill="#101726" stroke="#101726"></path><path d="M323 517L413 600L389 474Z" fill="#101726" stroke="#101726"></path><path d="M133 409L126 492L200 481Z" fill="#02111d" stroke="#02111d"></path><path d="M0 520L126 492L133 409Z" fill="#00101c" stroke="#00101c"></path><path d="M304 600L413 600L323 517Z" fill="#051320" stroke="#051320"></path><path d="M464 535L512 600L607 471Z" fill="#0d1624" stroke="#0d1624"></path><path d="M169 600L304 600L200 481Z" fill="#00101c" stroke="#00101c"></path><path d="M413 600L512 600L464 535Z" fill="#051320" stroke="#051320"></path><path d="M607 471L695 461L630 403Z" fill="#051320" stroke="#051320"></path><path d="M0 183L96 192L0 138Z" fill="#02111d" stroke="#02111d"></path><path d="M66 261L0 366L133 409Z" fill="#00101c" stroke="#00101c"></path><path d="M724 64L672 0L638 84Z" fill="#00101c" stroke="#00101c"></path><path d="M638 84L672 0L577 0Z" fill="#0b1523" stroke="#0b1523"></path><path d="M726 600L695 461L607 471Z" fill="#0e1625" stroke="#0e1625"></path><path d="M0 138L96 192L122 85Z" fill="#091422" stroke="#091422"></path><path d="M696 175L724 64L638 84Z" fill="#02111d" stroke="#02111d"></path><path d="M808 108L724 64L696 175Z" fill="#0e1625" stroke="#0e1625"></path><path d="M769 379L670 326L696 390Z" fill="#04121e" stroke="#04121e"></path><path d="M0 0L0 138L122 85Z" fill="#091422" stroke="#091422"></path><path d="M0 270L0 366L66 261Z" fill="#04121e" stroke="#04121e"></path><path d="M512 600L585 600L607 471Z" fill="#04121e" stroke="#04121e"></path><path d="M131 600L169 600L126 492Z" fill="#02111d" stroke="#02111d"></path><path d="M126 492L169 600L200 481Z" fill="#0e1625" stroke="#0e1625"></path><path d="M800 503L769 379L695 461Z" fill="#0b1523" stroke="#0b1523"></path><path d="M695 461L769 379L696 390Z" fill="#0e1625" stroke="#0e1625"></path><path d="M769 379L799 305L670 326Z" fill="#0d1624" stroke="#0d1624"></path><path d="M0 520L131 600L126 492Z" fill="#091422" stroke="#091422"></path><path d="M799 305L821 228L696 175Z" fill="#051320" stroke="#051320"></path><path d="M821 228L808 108L696 175Z" fill="#0e1625" stroke="#0e1625"></path><path d="M724 64L804 0L672 0Z" fill="#02111d" stroke="#02111d"></path><path d="M132 0L0 0L122 85Z" fill="#02111d" stroke="#02111d"></path><path d="M0 366L0 520L133 409Z" fill="#0d1624" stroke="#0d1624"></path><path d="M900 0L804 0L808 108Z" fill="#0e1625" stroke="#0e1625"></path><path d="M808 108L804 0L724 64Z" fill="#071321" stroke="#071321"></path><path d="M726 600L800 503L695 461Z" fill="#101726" stroke="#101726"></path><path d="M769 379L900 334L799 305Z" fill="#071321" stroke="#071321"></path><path d="M900 334L900 204L821 228Z" fill="#0e1625" stroke="#0e1625"></path><path d="M585 600L726 600L607 471Z" fill="#091422" stroke="#091422"></path><path d="M0 520L0 600L131 600Z" fill="#0e1625" stroke="#0e1625"></path><path d="M900 334L821 228L799 305Z" fill="#0e1625" stroke="#0e1625"></path><path d="M821 228L900 204L808 108Z" fill="#02111d" stroke="#02111d"></path><path d="M726 600L765 600L800 503Z" fill="#0b1523" stroke="#0b1523"></path><path d="M900 409L900 334L769 379Z" fill="#0e1625" stroke="#0e1625"></path><path d="M900 409L769 379L800 503Z" fill="#02111d" stroke="#02111d"></path><path d="M900 204L900 121L808 108Z" fill="#04121e" stroke="#04121e"></path><path d="M900 499L900 409L800 503Z" fill="#091422" stroke="#091422"></path><path d="M900 121L900 0L808 108Z" fill="#051320" stroke="#051320"></path><path d="M900 600L900 499L800 503Z" fill="#091422" stroke="#091422"></path><path d="M765 600L900 600L800 503Z" fill="#00101c" stroke="#00101c"></path></g></svg>