<svg id="visual" viewBox="0 0 900 900" width="900" height="900" xmlns="http://www.w3.org/2000/svg" xmlns:xlink="http://www.w3.org/1999/xlink" version="1.1"><rect x="0" y="0" width="900" height="900" fill="#111827"></rect><path d="M0 785L8.3 782.5C16.7 780 33.3 775 50 766.5C66.7 758 83.3 746 100 740.5C116.7 735 133.3 736 150 747.7C166.7 759.3 183.3 781.7 200 789.3C216.7 797 233.3 790 250 775.5C266.7 761 283.3 739 300 734.5C316.7 730 333.3 743 350 759.2C366.7 775.3 383.3 794.7 400 784.8C416.7 775 433.3 736 450 725.5C466.7 715 483.3 733 500 757.3C516.7 781.7 533.3 812.3 550 822.8C566.7 833.3 583.3 823.7 600 817.5C616.7 811.3 633.3 808.7 650 792.2C666.7 775.7 683.3 745.3 700 726C716.7 706.7 733.3 698.3 750 710C766.7 721.7 783.3 753.3 800 753.3C816.7 753.3 833.3 721.7 850 708.5C866.7 695.3 883.3 700.7 891.7 703.3L900 706L900 901L891.7 901C883.3 901 866.7 901 850 901C833.3 901 816.7 901 800 901C783.3 901 766.7 901 750 901C733.3 901 716.7 901 700 901C683.3 901 666.7 901 650 901C633.3 901 616.7 901 600 901C583.3 901 566.7 901 550 901C533.3 901 516.7 901 500 901C483.3 901 466.7 901 450 901C433.3 901 416.7 901 400 901C383.3 901 366.7 901 350 901C333.3 901 316.7 901 300 901C283.3 901 266.7 901 250 901C233.3 901 216.7 901 200 901C183.3 901 166.7 901 150 901C133.3 901 116.7 901 100 901C83.3 901 66.7 901 50 901C33.3 901 16.7 901 8.3 901L0 901Z" fill="#1F2937" stroke-linecap="round" stroke-linejoin="miter"></path></svg>